HIERARCHY
ROOT Hips
{
	OFFSET 0.00000 0.00000 0.00000
	CHANNELS 6 Xposition Yposition Zposition Zrotation Yrotation Xrotation 
	JOINT LHipJoint
	{
		OFFSET 0 0 0
		CHANNELS 3 Zrotation Yrotation Xrotation
		JOINT LeftUpLeg
		{
			OFFSET 2.36090 -1.39315 1.24752
			CHANNELS 3 Zrotation Yrotation Xrotation
			JOINT LeftLeg
			{
				OFFSET 2.06810 -5.68207 0.00000
				CHANNELS 3 Zrotation Yrotation Xrotation
				JOINT LeftFoot
				{
					OFFSET 2.46631 -6.77613 0.00000
					CHANNELS 3 Zrotation Yrotation Xrotation
					JOINT LeftToeBase
					{
						OFFSET 0.26031 -0.71520 1.99545
						CHANNELS 3 Zrotation Yrotation Xrotation
						End Site
						{
							OFFSET 0.00000 -0.00000 1.05957
						}
					}
				}
			}
		}
	}
	JOINT RHipJoint
	{
		OFFSET 0 0 0
		CHANNELS 3 Zrotation Yrotation Xrotation
		JOINT RightUpLeg
		{
			OFFSET -2.25243 -1.39315 1.24752
			CHANNELS 3 Zrotation Yrotation Xrotation
			JOINT RightLeg
			{
				OFFSET -2.17343 -5.97145 0.00000
				CHANNELS 3 Zrotation Yrotation Xrotation
				JOINT RightFoot
				{
					OFFSET -2.52372 -6.93386 0.00000
					CHANNELS 3 Zrotation Yrotation Xrotation
					JOINT RightToeBase
					{
						OFFSET -0.22538 -0.61923 2.11447
						CHANNELS 3 Zrotation Yrotation Xrotation
						End Site
						{
							OFFSET -0.00000 -0.00000 1.10506
						}
					}
				}
			}
		}
	}
	JOINT LowerBack
	{
		OFFSET 0 0 0
		CHANNELS 3 Zrotation Yrotation Xrotation
		JOINT Spine
		{
			OFFSET 0.01594 2.13103 0.08007
			CHANNELS 3 Zrotation Yrotation Xrotation
			JOINT Spine1
			{
				OFFSET 0.01393 2.09723 0.18338
				CHANNELS 3 Zrotation Yrotation Xrotation
				JOINT Neck
				{
					OFFSET 0 0 0
					CHANNELS 3 Zrotation Yrotation Xrotation
					JOINT Neck1
					{
						OFFSET 0.05351 1.38915 0.32494
						CHANNELS 3 Zrotation Yrotation Xrotation
						JOINT Head
						{
							OFFSET 0.00711 1.45992 -0.21666
							CHANNELS 3 Zrotation Yrotation Xrotation
							End Site
							{
								OFFSET -0.00433 1.47702 -0.11056
							}
						}
					}
				}
				JOINT LeftShoulder
				{
					OFFSET 0 0 0
					CHANNELS 3 Zrotation Yrotation Xrotation
					JOINT LeftArm
					{
						OFFSET 2.87198 0.92249 0.11132
						CHANNELS 3 Zrotation Yrotation Xrotation
						JOINT LeftForeArm
						{
							OFFSET 5.52731 -0.00000 0.00000
							CHANNELS 3 Zrotation Yrotation Xrotation
							JOINT LeftHand
							{
								OFFSET 3.11059 -0.00000 0.00000
								CHANNELS 3 Zrotation Yrotation Xrotation
								JOINT LeftFingerBase
								{
									OFFSET 0 0 0
									CHANNELS 3 Zrotation Yrotation Xrotation
									JOINT LeftHandIndex1
									{
										OFFSET 0.41963 -0.00000 0.00000
										CHANNELS 3 Zrotation Yrotation Xrotation
										End Site
										{
											OFFSET 0.33831 -0.00000 0.00000
										}
									}
								}
								JOINT LThumb
								{
									OFFSET 0 0 0
									CHANNELS 3 Zrotation Yrotation Xrotation
									End Site
									{
										OFFSET 0.34348 -0.00000 0.34348
									}
								}
							}
						}
					}
				}
				JOINT RightShoulder
				{
					OFFSET 0 0 0
					CHANNELS 3 Zrotation Yrotation Xrotation
					JOINT RightArm
					{
						OFFSET -2.94710 0.68072 0.32187
						CHANNELS 3 Zrotation Yrotation Xrotation
						JOINT RightForeArm
						{
							OFFSET -5.25396 -0.00000 -0.00000
							CHANNELS 3 Zrotation Yrotation Xrotation
							JOINT RightHand
							{
								OFFSET -3.10567 -0.00000 0.00000
								CHANNELS 3 Zrotation Yrotation Xrotation
								JOINT RightFingerBase
								{
									OFFSET 0 0 0
									CHANNELS 3 Zrotation Yrotation Xrotation
									JOINT RightHandIndex1
									{
										OFFSET -0.49868 -0.00000 0.00000
										CHANNELS 3 Zrotation Yrotation Xrotation
										End Site
										{
											OFFSET -0.40204 -0.00000 0.00000
										}
									}
								}
								JOINT RThumb
								{
									OFFSET 0 0 0
									CHANNELS 3 Zrotation Yrotation Xrotation
									End Site
									{
										OFFSET -0.40818 -0.00000 0.40818
									}
								}
							}
						}
					}
				}
			}
		}
	}
}
MOTION
Frames: 13
Frame Time: .0083333
5.1386 10.1381 19.2758 -174.8850 0.8674 -107.7460 0.0000 0.0000 0.0000 -10.3120 -18.8709 -7.1893 0.0000 0.0000 0.0000 2.4456 -8.6193 -28.1524 0.8130 -5.7538 -16.0716 0.0000 0.0000 0.0000 -8.9430 21.7985 -158.7624 -10.1034 -17.4676 59.8335 -1.4280 1.9281 23.3458 -0.0703 1.7107 -4.7068 -8.6647 3.0839 9.1917 5.5369 3.7288 0.7553 10.3640 2.2325 -5.3042 1.9914 0.5306 -54.1208 -0.4775 3.0441 6.4044 0.3071 2.7444 8.7966 -0.0000 -0.0000 0.0000 -61.2846 -74.3373 38.9852 13.0275 -21.3275 -2.4633 -0.0000 0.0000 -17.8535 56.8489 -25.5010 -33.3906 -7.1250 0.0000 -0.0000 15.3940 -9.8304 -18.4146 -0.0000 -0.0000 0.0000 97.2084 73.8743 74.6312 -13.2318 21.6259 -2.5381 0.0000 0.0000 24.0398 -47.1472 -3.2775 3.5265 7.1250 -0.0000 -0.0000 -16.8323 -34.3876 -4.5502
5.1382 10.1583 19.2980 -174.9440 0.8146 -107.6490 0.0000 0.0000 0.0000 -10.2107 -18.9963 -7.4208 0.0000 0.0000 0.0000 2.4515 -8.5122 -28.1910 0.8080 -5.7367 -16.0222 0.0000 0.0000 0.0000 -9.0228 21.7187 -158.5930 -9.9610 -17.3878 59.3579 -1.4553 1.8388 23.5218 -0.0736 1.7502 -4.8159 -8.6504 3.0619 9.2397 5.5841 3.7054 0.8225 10.4117 2.2178 -5.2554 1.9370 0.4980 -54.0884 -0.4109 2.9868 6.5274 0.3304 2.7098 8.8401 0.0000 0.0000 0.0000 -60.4678 -74.5839 38.1372 13.0403 -21.3462 -2.4679 -0.0000 0.0000 -17.8913 56.7272 -25.4073 -33.1783 -7.1250 0.0000 -0.0000 15.3577 -9.6306 -18.3246 0.0000 0.0000 0.0000 97.4799 74.2581 74.9785 -13.2302 21.6236 -2.5375 0.0000 0.0000 24.0632 -47.1159 -3.3109 3.5584 7.1250 -0.0000 -0.0000 -16.8146 -34.4327 -4.5258
5.1376 10.1783 19.3203 -174.9960 0.7530 -107.5470 0.0000 0.0000 0.0000 -10.0923 -19.1156 -7.6528 0.0000 0.0000 0.0000 2.4564 -8.4762 -28.2217 0.7770 -5.6280 -15.7088 0.0000 0.0000 0.0000 -9.0885 21.6446 -158.4269 -9.8184 -17.3064 58.8796 -1.4829 1.7524 23.7004 -0.0768 1.7878 -4.9196 -8.6318 3.0382 9.2758 5.6373 3.6821 0.8939 10.4641 2.2027 -5.1955 1.8800 0.4676 -54.0651 -0.3397 2.9312 6.6641 0.3564 2.6759 8.8895 -0.0000 -0.0000 0.0000 -59.5755 -74.8225 37.2319 13.0643 -21.3813 -2.4767 -0.0000 0.0000 -17.9352 56.6159 -25.3053 -32.9691 -7.1250 0.0000 -0.0000 15.3294 -9.4272 -18.2438 -0.0000 -0.0000 0.0000 97.7756 74.6489 75.3444 -13.2273 21.6194 -2.5364 0.0000 0.0000 24.0880 -47.0576 -3.3323 3.5740 7.1250 -0.0000 -0.0000 -16.7721 -34.4600 -4.5019
5.1365 10.1982 19.3425 -175.0410 0.6830 -107.4420 0.0000 0.0000 0.0000 -9.9586 -19.2278 -7.8826 0.0000 0.0000 0.0000 2.4601 -8.5248 -28.2422 0.7168 -5.4105 -15.0832 0.0000 0.0000 0.0000 -9.1372 21.5772 -158.2612 -9.6760 -17.2236 58.3997 -1.5112 1.6677 23.8841 -0.0795 1.8193 -5.0066 -8.6071 3.0132 9.3006 5.6964 3.6594 0.9702 10.5199 2.1874 -5.1241 1.8265 0.4447 -54.0593 -0.2755 2.8814 6.8232 0.3804 2.6424 8.9489 -0.0000 -0.0000 0.0000 -58.6160 -75.0541 36.2700 13.0975 -21.4299 -2.4888 -0.0000 0.0000 -17.9836 56.5168 -25.2019 -32.7710 -7.1250 0.0000 -0.0000 15.3078 -9.2301 -18.1729 -0.0000 -0.0000 0.0000 98.0885 75.0435 75.7216 -13.2248 21.6157 -2.5355 0.0000 0.0000 24.1093 -46.9789 -3.3331 3.5650 7.1250 -0.0000 -0.0000 -16.7078 -34.4569 -4.4847
5.1350 10.2179 19.3643 -175.0790 0.6010 -107.3390 0.0000 0.0000 0.0000 -9.8102 -19.3354 -8.1091 0.0000 0.0000 0.0000 2.4637 -8.6110 -28.2601 0.6457 -5.1405 -14.3098 0.0000 0.0000 0.0000 -9.1653 21.5143 -158.0917 -9.5346 -17.1397 57.9212 -1.5397 1.5844 24.0682 -0.0820 1.8470 -5.0831 -8.5732 2.9869 9.3213 5.7635 3.6376 1.0507 10.5793 2.1723 -5.0460 1.7766 0.4284 -54.0600 -0.2188 2.8366 6.9975 0.4019 2.6089 9.0149 -0.0000 0.0000 0.0000 -57.6075 -75.2742 35.2646 13.1390 -21.4905 -2.5040 -0.0000 0.0000 -18.0478 56.4393 -25.1121 -32.6075 -7.1250 0.0000 -0.0000 15.2935 -9.0643 -18.1181 -0.0000 0.0000 0.0000 98.4063 75.4331 76.1088 -13.2258 21.6172 -2.5359 0.0000 0.0000 24.1047 -46.8875 -3.3202 3.5400 7.1250 -0.0000 -0.0000 -16.6302 -34.4352 -4.4714
5.1331 10.2377 19.3861 -175.1110 0.5125 -107.2380 0.0000 0.0000 0.0000 -9.6558 -19.4395 -8.3360 0.0000 0.0000 0.0000 2.4680 -8.6780 -28.2839 0.5832 -4.8899 -13.5948 0.0000 0.0000 0.0000 -9.1801 21.4566 -157.9175 -9.3933 -17.0543 57.4407 -1.5686 1.5030 24.2541 -0.0845 1.8753 -5.1613 -8.5394 2.9603 9.3408 5.8395 3.6168 1.1350 10.6487 2.1578 -4.9640 1.7209 0.4141 -54.0556 -0.1651 2.7964 7.1773 0.4236 2.5761 9.0828 0.0000 0.0000 0.0000 -56.5519 -75.4823 34.2123 13.1876 -21.5615 -2.5218 -0.0000 0.0000 -18.1416 56.3871 -25.0504 -32.4963 -7.1250 0.0000 -0.0000 15.2842 -8.9512 -18.0812 0.0000 0.0000 0.0000 98.7334 75.8139 76.4926 -13.2330 21.6277 -2.5385 0.0000 0.0000 24.1108 -46.7956 -3.2874 3.4940 7.1250 -0.0000 -0.0000 -16.5473 -34.3847 -4.4686
5.1310 10.2573 19.4080 -175.1420 0.4298 -107.1420 0.0000 0.0000 0.0000 -9.5133 -19.5421 -8.5634 0.0000 -0.0000 -0.0000 2.4746 -8.6772 -28.3230 0.5429 -4.7209 -13.1141 0.0000 0.0000 0.0000 -9.1920 21.4052 -157.7346 -9.2514 -16.9668 56.9556 -1.5979 1.4259 24.4441 -0.0873 1.9053 -5.2439 -8.5220 2.9341 9.3644 5.9228 3.5956 1.2230 10.7362 2.1436 -4.8816 1.6600 0.4025 -54.0345 -0.1169 2.7623 7.3540 0.4447 2.5443 9.1488 0.0000 0.0000 0.0000 -55.4585 -75.6735 33.1136 13.2433 -21.6427 -2.5423 -0.0000 0.0000 -18.2713 56.3598 -25.0205 -32.4405 -7.1250 0.0000 -0.0000 15.2785 -8.8952 -18.0616 0.0000 0.0000 0.0000 99.0631 76.1897 76.9069 -13.2476 21.6489 -2.5439 0.0000 0.0000 24.0749 -46.7365 -3.2477 3.4448 7.1250 -0.0000 -0.0000 -16.4898 -34.3272 -4.4759
5.1287 10.2767 19.4303 -175.1740 0.3600 -107.0510 0.0000 0.0000 0.0000 -9.3916 -19.6454 -8.7939 0.0000 0.0000 0.0000 2.4840 -8.5859 -28.3818 0.5307 -4.6683 -12.9650 0.0000 0.0000 0.0000 -9.2135 21.3559 -157.5471 -9.1080 -16.8767 56.4629 -1.6283 1.3493 24.6402 -0.0902 1.9372 -5.3322 -8.5280 2.9088 9.3913 6.0105 3.5733 1.3129 10.8430 2.1294 -4.8005 1.5915 0.3919 -54.0003 -0.0715 2.7335 7.5282 0.4663 2.5136 9.2130 -0.0000 -0.0000 0.0000 -54.3281 -75.8489 31.9735 13.3043 -21.7314 -2.5648 -0.0000 0.0000 -18.4378 56.3628 -25.0300 -32.4527 -7.1250 0.0000 -0.0000 15.2774 -8.9094 -18.0632 -0.0000 -0.0000 0.0000 99.3842 76.5601 77.3405 -13.2697 21.6812 -2.5521 0.0000 0.0000 24.0158 -46.6682 -3.2284 3.4162 7.1250 -0.0000 -0.0000 -16.4295 -34.2968 -4.4710
5.1262 10.2960 19.4529 -175.2070 0.3048 -106.9620 0.0000 0.0000 0.0000 -9.2921 -19.7493 -9.0286 0.0000 0.0000 0.0000 2.4960 -8.4002 -28.4603 0.5469 -4.7376 -13.1616 0.0000 0.0000 0.0000 -9.2475 21.3086 -157.3537 -8.9627 -16.7836 55.9609 -1.6597 1.2726 24.8426 -0.0934 1.9713 -5.4264 -8.5576 2.8846 9.4215 6.1020 3.5501 1.4040 10.9687 2.1154 -4.7213 1.5174 0.3834 -53.9575 -0.0317 2.7111 7.7022 0.4874 2.4842 9.2768 -0.0000 -0.0000 0.0000 -53.1749 -76.0096 30.7977 13.3690 -21.8255 -2.5889 -0.0000 0.0000 -18.6203 56.3980 -25.0628 -32.5190 -7.1250 0.0000 -0.0000 15.2863 -8.9742 -18.0889 -0.0000 -0.0000 0.0000 99.7097 76.9240 77.7873 -13.2986 21.7231 -2.5627 0.0000 0.0000 23.9557 -46.6083 -3.2051 3.3845 7.1250 -0.0000 -0.0000 -16.3752 -34.2617 -4.4697
5.1233 10.3147 19.4759 -175.2410 0.2623 -106.8740 0.0000 0.0000 0.0000 -9.2099 -19.8515 -9.2631 0.0000 0.0000 0.0000 2.5090 -8.1796 -28.5477 0.5738 -4.8508 -13.4835 0.0000 0.0000 0.0000 -9.2921 21.2618 -157.1595 -8.8157 -16.6877 55.4506 -1.6931 1.1905 25.0549 -0.0961 1.9995 -5.5041 -8.6088 2.8602 9.4528 6.1980 3.5246 1.4957 11.1132 2.1007 -4.6428 1.4369 0.3771 -53.9150 0.0050 2.6950 7.8815 0.5092 2.4565 9.3427 -0.0000 -0.0000 0.0000 -51.9940 -76.1582 29.5739 13.4340 -21.9198 -2.6131 -0.0000 0.0000 -18.8046 56.4470 -25.1047 -32.6079 -7.1250 0.0000 -0.0000 15.2998 -9.0598 -18.1250 -0.0000 -0.0000 0.0000 100.0349 77.2888 78.2601 -13.3310 21.7702 -2.5747 0.0000 0.0000 23.9080 -46.5219 -3.1922 3.3609 7.1250 -0.0000 -0.0000 -16.3017 -34.2398 -4.4572
5.1201 10.3330 19.4991 -175.2730 0.2257 -106.7850 0.0000 0.0000 0.0000 -9.1333 -19.9497 -9.4970 0.0000 0.0000 0.0000 2.5222 -7.9695 -28.6371 0.5975 -4.9485 -13.7617 0.0000 0.0000 0.0000 -9.3438 21.2152 -156.9642 -8.6677 -16.5891 54.9337 -1.7274 1.1077 25.2722 -0.0991 2.0301 -5.5889 -8.6691 2.8360 9.4810 6.2967 3.4990 1.5881 11.2666 2.0859 -4.5622 1.3577 0.3736 -53.8819 0.0350 2.6824 8.0708 0.5289 2.4290 9.4133 -0.0000 -0.0000 0.0000 -50.7961 -76.3031 28.3110 13.4953 -22.0086 -2.6360 -0.0000 0.0000 -18.9747 56.5022 -25.1429 -32.6994 -7.1250 0.0000 -0.0000 15.3177 -9.1444 -18.1665 -0.0000 -0.0000 0.0000 100.3434 77.6566 78.7460 -13.3661 21.8213 -2.5878 0.0000 0.0000 23.8463 -46.4178 -3.1776 3.3334 7.1250 -0.0000 -0.0000 -16.2136 -34.2156 -4.4413
5.1165 10.3507 19.5225 -175.3030 0.1951 -106.6950 0.0000 0.0000 0.0000 -9.0600 -20.0422 -9.7288 0.0000 -0.0000 -0.0000 2.5356 -7.7979 -28.7266 0.6092 -4.9959 -13.8968 0.0000 0.0000 0.0000 -9.4015 21.1700 -156.7707 -8.5189 -16.4879 54.4108 -1.7630 1.0227 25.4960 -0.1019 2.0584 -5.6671 -8.7402 2.8111 9.5049 6.3995 3.4722 1.6827 11.4320 2.0704 -4.4772 1.2767 0.3729 -53.8610 0.0585 2.6762 8.2677 0.5475 2.4032 9.4879 0.0000 0.0000 0.0000 -49.5715 -76.4505 26.9835 13.5482 -22.0852 -2.6559 -0.0000 0.0000 -19.1149 56.5384 -25.1648 -32.7564 -7.1250 0.0000 -0.0000 15.3305 -9.1959 -18.1941 0.0000 0.0000 0.0000 100.6348 78.0342 79.2571 -13.4028 21.8746 -2.6014 0.0000 0.0000 23.7720 -46.2812 -3.1584 3.2976 7.1250 -0.0000 -0.0000 -16.0978 -34.1825 -4.4208
5.1125 10.3680 19.5457 -175.3290 0.1713 -106.6020 0.0000 0.0000 0.0000 -8.9918 -20.1294 -9.9603 0.0000 0.0000 0.0000 2.5494 -7.6488 -28.8180 0.6142 -5.0159 -13.9540 0.0000 0.0000 0.0000 -9.4662 21.1271 -156.5781 -8.3698 -16.3846 53.8839 -1.7995 0.9365 25.7236 -0.1046 2.0856 -5.7423 -8.8194 2.7858 9.5239 6.5028 3.4444 1.7789 11.6035 2.0540 -4.3877 1.1996 0.3778 -53.8482 0.0708 2.6777 8.4680 0.5626 2.3794 9.5647 -0.0000 -0.0000 0.0000 -48.3169 -76.6035 25.5913 13.5908 -22.1466 -2.6719 -0.0000 0.0000 -19.2238 56.5455 -25.1559 -32.7548 -7.1250 0.0000 -0.0000 15.3369 -9.1889 -18.2008 -0.0000 -0.0000 0.0000 100.9374 78.4114 79.7890 -13.4418 21.9312 -2.6160 0.0000 0.0000 23.6778 -46.1504 -3.1298 3.2530 7.1250 -0.0000 -0.0000 -15.9850 -34.1378 -4.4057
